<svg id="Layer_1" data-name="Layer 1" xmlns="http://www.w3.org/2000/svg" viewBox="0 0 512 512"><title>house-home</title><path d="M.07,256C.07,114.65,114.65.05,256,.05S511.94,114.66,511.93,256,397.34,511.95,256,511.95.05,397.35.07,256Z" fill="#ff3332"/><polygon points="220.82 154.03 186.23 154.03 186.23 212.39 220.82 177.8 220.82 154.03" fill="#fff"/><polygon points="325.77 255.68 220.82 255.68 186.23 255.68 186.23 360.95 220.82 360.95 238.4 360.95 238.4 310.86 273.59 310.86 273.59 360.95 325.77 360.95 325.77 255.68" fill="#fff"/><polygon points="220.82 249.72 325.77 249.72 354.67 249.72 256 151.05 220.82 186.23 186.23 220.82 157.33 249.72 186.23 249.72 220.82 249.72" fill="#fff"/></svg>